<?xml version="1.0" standalone="no"?>
<!DOCTYPE svg PUBLIC "-//W3C//DTD SVG 20010904//EN"
 "http://www.w3.org/TR/2001/REC-SVG-20010904/DTD/svg10.dtd">
<svg version="1.0" xmlns="http://www.w3.org/2000/svg"
 width="600.000000pt" height="600.000000pt" viewBox="0 0 600.000000 600.000000"
 preserveAspectRatio="xMidYMid meet">
<metadata>
Created by potrace 1.14, written by Peter Selinger 2001-2017
</metadata>
<g transform="translate(0.000000,600.000000) scale(0.100000,-0.100000)"
fill="#000000" stroke="none">
<path d="M2920 4493 c-154 -30 -312 -178 -432 -403 -90 -170 -176 -452 -203
-669 -4 -30 -8 -63 -11 -74 -22 -116 -21 -582 1 -698 3 -13 8 -49 11 -79 3
-30 7 -57 9 -60 2 -3 6 -26 10 -50 22 -148 119 -439 187 -560 173 -307 381
-441 598 -386 242 62 455 362 566 798 28 114 42 181 50 253 4 28 8 53 10 56
17 29 25 478 12 644 -13 154 -54 380 -90 495 -126 398 -294 634 -510 714 -61
22 -149 30 -208 19z"/>
<path d="M1694 4087 c-119 -50 -234 -149 -332 -285 -35 -49 -107 -200 -136
-282 -24 -71 -63 -228 -64 -260 -1 -8 -4 -28 -7 -45 -9 -50 -13 -326 -4 -395
9 -72 17 -127 24 -150 2 -8 7 -28 10 -45 3 -16 7 -34 9 -40 22 -81 32 -109 52
-160 93 -227 227 -396 388 -484 85 -46 136 -57 178 -37 18 9 42 29 53 43 19
27 19 50 19 1043 0 786 -3 1023 -12 1046 -14 34 -61 66 -102 69 -15 1 -50 -7
-76 -18z"/>
<path d="M4169 4087 c-19 -12 -39 -34 -46 -47 -20 -39 -19 -2040 1 -2078 39
-75 102 -86 206 -35 74 37 92 48 133 83 203 172 344 474 382 820 6 60 7 293 1
325 -2 11 -7 47 -11 80 -45 374 -252 720 -498 836 -88 41 -126 44 -168 16z"/>
<path d="M556 3369 c-93 -26 -160 -199 -152 -401 12 -339 225 -465 328 -195
25 66 29 92 35 209 11 232 -91 419 -211 387z"/>
<path d="M5383 3372 c-45 -7 -100 -82 -137 -185 -10 -29 -19 -116 -20 -182 -1
-130 25 -237 76 -311 23 -33 83 -72 106 -68 6 1 19 2 27 3 8 0 29 14 47 30
147 129 147 553 1 684 -24 21 -69 34 -100 29z"/>
</g>
</svg>
